<svg xmlns="http://www.w3.org/2000/svg" viewBox="0 0 100 100">
  <defs>
    <linearGradient id="grad" x1="0%" y1="0%" x2="100%" y2="100%">
      <stop offset="0%" style="stop-color:#3b82f6;stop-opacity:1" />
      <stop offset="100%" style="stop-color:#1e40af;stop-opacity:1" />
    </linearGradient>
  </defs>
  <rect width="100" height="100" rx="20" fill="url(#grad)"/>
  <g fill="white">
    <!-- Balance scale icon representing ethics -->
    <circle cx="50" cy="30" r="4"/>
    <rect x="48" y="30" width="4" height="25" rx="1"/>

    <!-- Left pan -->
    <line x1="30" y1="45" x2="40" y2="45" stroke="white" stroke-width="2"/>
    <path d="M 30 45 L 25 55 L 45 55 Z" fill="white"/>
    <line x1="35" y1="40" x2="35" y2="45" stroke="white" stroke-width="2"/>

    <!-- Right pan -->
    <line x1="60" y1="45" x2="70" y2="45" stroke="white" stroke-width="2"/>
    <path d="M 60 45 L 55 55 L 75 55 Z" fill="white"/>
    <line x1="65" y1="40" x2="65" y2="45" stroke="white" stroke-width="2"/>

    <!-- Cross bar -->
    <rect x="30" y="38" width="40" height="4" rx="2"/>

    <!-- Shield for safety -->
    <path d="M 50 60 L 42 63 L 42 75 Q 42 80 50 82 Q 58 80 58 75 L 58 63 Z" fill="white" opacity="0.9"/>
    <path d="M 46 70 L 49 73 L 55 66" stroke="#1e40af" stroke-width="2" fill="none" stroke-linecap="round" stroke-linejoin="round"/>
  </g>
</svg>
